<svg xmlns="http://www.w3.org/2000/svg" width="32" height="32" viewBox="0 0 32 32">
  <rect width="32" height="32" rx="6" fill="#0a0a0c"/>
  <g transform="translate(16, 13) scale(0.052)">
    <path d="M0-120 C-15-90-60-40-60 20 C-60 55-35 85-10 100 C-20 70-15 30 0 10 C15 30 20 70 10 100 C35 85 60 55 60 20 C60-40 15-90 0-120Z" fill="#c4952e"/>
    <path d="M0-60 C-10-40-35-10-35 30 C-35 55-18 72 0 80 C-8 60-5 30 0 18 C5 30 8 60 0 80 C18 72 35 55 35 30 C35-10 10-40 0-60Z" fill="#dbb042"/>
    <path d="M0-20 C-6-8-18 8-18 28 C-18 42-8 52 0 56 C-4 44-2 28 0 22 C2 28 4 44 0 56 C8 52 18 42 18 28 C18 8 6-8 0-20Z" fill="#f0d060"/>
  </g>
</svg>